<svg xmlns="http://www.w3.org/2000/svg" xmlns:xlink="http://www.w3.org/1999/xlink" version="1.1" x="0px" y="0px" viewBox="0 0 100 125" style="enable-background:new 0 0 100 100;" xml:space="preserve"><path d="M91.809,21.742c-0.071-0.164-0.156-0.324-0.272-0.47c-0.253-0.32-0.583-0.541-0.94-0.668  c-2.014-1.626-4.571-2.605-7.355-2.605H16.757c-2.784,0-5.342,0.979-7.355,2.606c-0.357,0.128-0.686,0.348-0.939,0.668  c-0.116,0.146-0.201,0.306-0.272,0.47c-1.955,2.096-3.162,4.899-3.162,7.985v40.548c0,6.467,5.261,11.728,11.728,11.728h66.485  c6.467,0,11.729-5.261,11.729-11.728V29.726C94.971,26.64,93.764,23.838,91.809,21.742z M83.242,22.189  c1.058,0,2.064,0.221,2.978,0.616L50,51.464L13.78,22.805c0.914-0.395,1.92-0.616,2.977-0.616H83.242z M90.779,70.274  c0,4.155-3.381,7.537-7.537,7.537H16.757c-4.155,0-7.537-3.381-7.537-7.537V29.726c0-1.545,0.469-2.982,1.269-4.179L48.7,55.78  c0.381,0.302,0.84,0.452,1.3,0.452s0.92-0.15,1.3-0.452L89.51,25.548c0.801,1.197,1.269,2.634,1.269,4.178V70.274z"/><text x="0" y="115" fill="#000000" font-size="5px" font-weight="bold" font-family="'Helvetica Neue', Helvetica, Arial-Unicode, Arial, Sans-serif">Created by Ibad Syukron</text><text x="0" y="120" fill="#000000" font-size="5px" font-weight="bold" font-family="'Helvetica Neue', Helvetica, Arial-Unicode, Arial, Sans-serif">from the Noun Project</text></svg>