<svg xmlns="http://www.w3.org/2000/svg" version="1.1" xmlns:xlink="http://www.w3.org/1999/xlink" xmlns:svgjs="http://svgjs.dev/svgjs" width="1000" height="232" viewBox="0 0 1000 232"><g transform="matrix(1,0,0,1,-0.6060606060606233,-0.5163596320615369)"><svg viewBox="0 0 396 92" data-background-color="#046380" preserveAspectRatio="xMidYMid meet" height="232" width="1000" xmlns="http://www.w3.org/2000/svg" xmlns:xlink="http://www.w3.org/1999/xlink"><g id="tight-bounds" transform="matrix(1,0,0,1,0.2400000000000091,0.2047633023692299)"><svg viewBox="0 0 395.52 91.59047097288524" height="91.59047097288524" width="395.52"><g><svg viewBox="0 0 543.4431955003681 125.84500966547449" height="91.59047097288524" width="395.52"><g transform="matrix(1,0,0,1,147.9231955003682,17.39247239226168)"><svg viewBox="0 0 395.52 91.06006488095113" height="91.06006488095113" width="395.52"><g id="textblocktransform"><svg viewBox="0 0 395.52 91.06006488095113" height="91.06006488095113" width="395.52" id="textblock"><g><svg viewBox="0 0 395.52 49.11344782034346" height="49.11344782034346" width="395.52"><g transform="matrix(1,0,0,1,0,0)"><svg width="395.52" viewBox="4.650000095367432 -37 302.77001953125 37.599998474121094" height="49.11344782034346" data-palette-color="#ffffff"><path d="M25.85 0L13.1-21.3 8.9-29.05 8.75-29.05 8.75 0 4.65 0 4.65-34.9 9.5-34.9 22.25-13.6 26.45-5.85 26.6-5.85 26.6-34.9 30.7-34.9 30.7 0 25.85 0ZM49.3 0.6L49.3 0.6Q46.65 0.6 44.52-0.35 42.4-1.3 40.87-3.08 39.35-4.85 38.52-7.33 37.7-9.8 37.7-12.9L37.7-12.9Q37.7-15.95 38.52-18.45 39.35-20.95 40.87-22.73 42.4-24.5 44.52-25.45 46.65-26.4 49.3-26.4L49.3-26.4Q51.9-26.4 53.95-25.45 56-24.5 57.45-22.83 58.9-21.15 59.67-18.85 60.45-16.55 60.45-13.8L60.45-13.8 60.45-11.9 41.9-11.9 41.9-10.7Q41.9-9.05 42.42-7.63 42.95-6.2 43.92-5.15 44.9-4.1 46.32-3.5 47.75-2.9 49.55-2.9L49.55-2.9Q52-2.9 53.82-4.05 55.65-5.2 56.65-7.35L56.65-7.35 59.5-5.3Q58.25-2.65 55.6-1.03 52.95 0.6 49.3 0.6ZM49.3-23.05L49.3-23.05Q47.65-23.05 46.3-22.48 44.95-21.9 43.97-20.85 43-19.8 42.45-18.38 41.9-16.95 41.9-15.25L41.9-15.25 41.9-14.9 56.15-14.9 56.15-15.45Q56.15-18.9 54.27-20.98 52.4-23.05 49.3-23.05ZM88.05 0L85.8 0Q83.55 0 82.57-1.2 81.6-2.4 81.35-4.2L81.35-4.2 81.1-4.2Q80.25-1.8 78.3-0.6 76.35 0.6 73.65 0.6L73.65 0.6Q69.55 0.6 67.27-1.5 65-3.6 65-7.2L65-7.2Q65-10.85 67.67-12.8 70.35-14.75 76-14.75L76-14.75 81.1-14.75 81.1-17.3Q81.1-20.05 79.6-21.5 78.1-22.95 75-22.95L75-22.95Q72.65-22.95 71.07-21.9 69.5-20.85 68.45-19.1L68.45-19.1 66.05-21.35Q67.1-23.45 69.4-24.93 71.7-26.4 75.2-26.4L75.2-26.4Q79.9-26.4 82.5-24.1 85.1-21.8 85.1-17.7L85.1-17.7 85.1-3.5 88.05-3.5 88.05 0ZM74.3-2.8L74.3-2.8Q75.8-2.8 77.05-3.15 78.3-3.5 79.2-4.15 80.1-4.8 80.6-5.65 81.1-6.5 81.1-7.5L81.1-7.5 81.1-11.75 75.8-11.75Q72.35-11.75 70.77-10.75 69.2-9.75 69.2-7.85L69.2-7.85 69.2-6.8Q69.2-4.9 70.57-3.85 71.95-2.8 74.3-2.8ZM104.44 0L99.44 0Q97.34 0 96.27-1.18 95.19-2.35 95.19-4.25L95.19-4.25 95.19-22.3 90.94-22.3 90.94-25.8 93.34-25.8Q94.64-25.8 95.12-26.33 95.59-26.85 95.59-28.15L95.59-28.15 95.59-32.95 99.19-32.95 99.19-25.8 104.84-25.8 104.84-22.3 99.19-22.3 99.19-3.5 104.44-3.5 104.44 0ZM123.99 0.6L123.99 0.6Q117.34 0.6 113.64-3.93 109.94-8.45 109.94-17.25L109.94-17.25Q109.94-26.05 113.64-30.78 117.34-35.5 123.99-35.5L123.99-35.5Q128.39-35.5 131.37-33.5 134.34-31.5 135.99-27.85L135.99-27.85 132.59-25.8Q131.54-28.5 129.39-30.13 127.24-31.75 123.99-31.75L123.99-31.75Q121.74-31.75 119.97-30.9 118.19-30.05 116.97-28.48 115.74-26.9 115.09-24.73 114.44-22.55 114.44-19.85L114.44-19.85 114.44-14.65Q114.44-9.25 116.94-6.2 119.44-3.15 123.99-3.15L123.99-3.15Q127.34-3.15 129.59-4.88 131.84-6.6 132.89-9.45L132.89-9.45 136.24-7.35Q134.59-3.65 131.49-1.53 128.39 0.6 123.99 0.6ZM163.34 0L161.09 0Q158.84 0 157.86-1.2 156.89-2.4 156.64-4.2L156.64-4.2 156.39-4.2Q155.54-1.8 153.59-0.6 151.64 0.6 148.94 0.6L148.94 0.6Q144.84 0.6 142.56-1.5 140.29-3.6 140.29-7.2L140.29-7.2Q140.29-10.85 142.96-12.8 145.64-14.75 151.29-14.75L151.29-14.75 156.39-14.75 156.39-17.3Q156.39-20.05 154.89-21.5 153.39-22.95 150.29-22.95L150.29-22.95Q147.94-22.95 146.36-21.9 144.79-20.85 143.74-19.1L143.74-19.1 141.34-21.35Q142.39-23.45 144.69-24.93 146.99-26.4 150.49-26.4L150.49-26.4Q155.19-26.4 157.79-24.1 160.39-21.8 160.39-17.7L160.39-17.7 160.39-3.5 163.34-3.5 163.34 0ZM149.59-2.8L149.59-2.8Q151.09-2.8 152.34-3.15 153.59-3.5 154.49-4.15 155.39-4.8 155.89-5.65 156.39-6.5 156.39-7.5L156.39-7.5 156.39-11.75 151.09-11.75Q147.64-11.75 146.06-10.75 144.49-9.75 144.49-7.85L144.49-7.85 144.49-6.8Q144.49-4.9 145.86-3.85 147.24-2.8 149.59-2.8ZM176.84 0L173.29 0Q171.19 0 170.11-1.18 169.04-2.35 169.04-4.15L169.04-4.15 169.04-37 173.04-37 173.04-3.5 176.84-3.5 176.84 0ZM192.33 0.6L192.33 0.6Q189.68 0.6 187.56-0.35 185.43-1.3 183.91-3.08 182.38-4.85 181.56-7.33 180.73-9.8 180.73-12.9L180.73-12.9Q180.73-15.95 181.56-18.45 182.38-20.95 183.91-22.73 185.43-24.5 187.56-25.45 189.68-26.4 192.33-26.4L192.33-26.4Q194.93-26.4 196.98-25.45 199.03-24.5 200.48-22.83 201.93-21.15 202.71-18.85 203.48-16.55 203.48-13.8L203.48-13.8 203.48-11.9 184.93-11.9 184.93-10.7Q184.93-9.05 185.46-7.63 185.98-6.2 186.96-5.15 187.93-4.1 189.36-3.5 190.78-2.9 192.58-2.9L192.58-2.9Q195.03-2.9 196.86-4.05 198.68-5.2 199.68-7.35L199.68-7.35 202.53-5.3Q201.28-2.65 198.63-1.03 195.98 0.6 192.33 0.6ZM192.33-23.05L192.33-23.05Q190.68-23.05 189.33-22.48 187.98-21.9 187.01-20.85 186.03-19.8 185.48-18.38 184.93-16.95 184.93-15.25L184.93-15.25 184.93-14.9 199.18-14.9 199.18-15.45Q199.18-18.9 197.31-20.98 195.43-23.05 192.33-23.05ZM214.08 0L210.08 0 210.08-25.8 214.08-25.8 214.08-21.6 214.28-21.6Q215.23-23.8 216.96-25.1 218.68-26.4 221.58-26.4L221.58-26.4Q225.58-26.4 227.91-23.83 230.23-21.25 230.23-16.55L230.23-16.55 230.23 0 226.23 0 226.23-15.85Q226.23-22.8 220.38-22.8L220.38-22.8Q219.18-22.8 218.06-22.5 216.93-22.2 216.03-21.6 215.13-21 214.61-20.08 214.08-19.15 214.08-17.9L214.08-17.9 214.08 0ZM254.98 0L254.98-4.2 254.78-4.2Q252.43 0.6 247.23 0.6L247.23 0.6Q244.83 0.6 242.88-0.35 240.93-1.3 239.55-3.05 238.18-4.8 237.45-7.3 236.73-9.8 236.73-12.9L236.73-12.9Q236.73-16 237.45-18.5 238.18-21 239.55-22.75 240.93-24.5 242.88-25.45 244.83-26.4 247.23-26.4L247.23-26.4Q249.93-26.4 251.85-25.23 253.78-24.05 254.78-21.6L254.78-21.6 254.98-21.6 254.98-37 258.98-37 258.98 0 254.98 0ZM248.33-3L248.33-3Q249.68-3 250.9-3.35 252.13-3.7 253.03-4.38 253.93-5.05 254.45-6.03 254.98-7 254.98-8.25L254.98-8.25 254.98-17.85Q254.98-18.9 254.45-19.83 253.93-20.75 253.03-21.4 252.13-22.05 250.9-22.43 249.68-22.8 248.33-22.8L248.33-22.8Q244.93-22.8 242.98-20.68 241.03-18.55 241.03-15.1L241.03-15.1 241.03-10.7Q241.03-7.25 242.98-5.13 244.93-3 248.33-3ZM288.48 0L286.23 0Q283.98 0 283-1.2 282.03-2.4 281.78-4.2L281.78-4.2 281.53-4.2Q280.68-1.8 278.73-0.6 276.78 0.6 274.08 0.6L274.08 0.6Q269.98 0.6 267.7-1.5 265.43-3.6 265.43-7.2L265.43-7.2Q265.43-10.85 268.1-12.8 270.78-14.75 276.43-14.75L276.43-14.75 281.53-14.75 281.53-17.3Q281.53-20.05 280.03-21.5 278.53-22.95 275.43-22.95L275.43-22.95Q273.08-22.95 271.5-21.9 269.93-20.85 268.88-19.1L268.88-19.1 266.48-21.35Q267.53-23.45 269.83-24.93 272.13-26.4 275.63-26.4L275.63-26.4Q280.33-26.4 282.93-24.1 285.53-21.8 285.53-17.7L285.53-17.7 285.53-3.5 288.48-3.5 288.48 0ZM274.73-2.8L274.73-2.8Q276.23-2.8 277.48-3.15 278.73-3.5 279.63-4.15 280.53-4.8 281.03-5.65 281.53-6.5 281.53-7.5L281.53-7.5 281.53-11.75 276.23-11.75Q272.78-11.75 271.2-10.75 269.63-9.75 269.63-7.85L269.63-7.85 269.63-6.8Q269.63-4.9 271-3.85 272.38-2.8 274.73-2.8ZM298.17 0L294.17 0 294.17-25.8 298.17-25.8 298.17-21.05 298.42-21.05Q299.12-22.9 300.92-24.35 302.72-25.8 305.87-25.8L305.87-25.8 307.42-25.8 307.42-21.8 305.07-21.8Q301.82-21.8 300-20.58 298.17-19.35 298.17-17.5L298.17-17.5 298.17 0Z" opacity="1" transform="matrix(1,0,0,1,0,0)" fill="#ffffff" class="wordmark-text-0" data-fill-palette-color="primary" id="text-0"></path></svg></g></svg></g><g transform="matrix(1,0,0,1,0,60.707954127978866)"><svg viewBox="0 0 217.96482218577395 30.35211075297226" height="30.35211075297226" width="217.96482218577395"><g transform="matrix(1,0,0,1,0,0)"><svg width="217.96482218577395" viewBox="1 -36.650001525878906 267.4800109863281 37.25" height="30.35211075297226" data-palette-color="#ffffff"><path d="M27.4-32.25L15.7-32.25 15.7 0 12.7 0 12.7-32.25 1-32.25 1-34.9 27.4-34.9 27.4-32.25ZM34.45-32.55L34.45-32.55Q33.45-32.55 32.97-33.05 32.5-33.55 32.5-34.35L32.5-34.35 32.5-34.85Q32.5-35.65 32.97-36.15 33.45-36.65 34.45-36.65L34.45-36.65Q35.45-36.65 35.92-36.15 36.4-35.65 36.4-34.85L36.4-34.85 36.4-34.35Q36.4-33.55 35.92-33.05 35.45-32.55 34.45-32.55ZM33.05 0L33.05-25.6 35.9-25.6 35.9 0 33.05 0ZM48.05 0L45.2 0 45.2-25.6 48.05-25.6 48.05-21.55 48.2-21.55Q48.59-22.5 49.2-23.33 49.8-24.15 50.65-24.8 51.5-25.45 52.67-25.83 53.84-26.2 55.45-26.2L55.45-26.2Q58.2-26.2 60.3-24.9 62.4-23.6 63.34-20.8L63.34-20.8 63.5-20.8Q64.2-23.05 66.17-24.63 68.15-26.2 71.55-26.2L71.55-26.2Q75.65-26.2 77.84-23.68 80.05-21.15 80.05-16.45L80.05-16.45 80.05 0 77.19 0 77.19-15.95Q77.19-23.65 70.75-23.65L70.75-23.65Q69.4-23.65 68.2-23.3 67-22.95 66.07-22.23 65.15-21.5 64.59-20.43 64.05-19.35 64.05-17.95L64.05-17.95 64.05 0 61.2 0 61.2-15.95Q61.2-23.65 54.8-23.65L54.8-23.65Q53.5-23.65 52.27-23.3 51.05-22.95 50.09-22.25 49.15-21.55 48.59-20.48 48.05-19.4 48.05-18L48.05-18 48.05 0ZM98.14 0.6L98.14 0.6Q95.59 0.6 93.52-0.3 91.44-1.2 89.97-2.93 88.49-4.65 87.72-7.15 86.94-9.65 86.94-12.8L86.94-12.8Q86.94-15.95 87.72-18.43 88.49-20.9 89.97-22.63 91.44-24.35 93.49-25.28 95.54-26.2 98.09-26.2L98.09-26.2Q100.54-26.2 102.54-25.28 104.54-24.35 105.94-22.7 107.34-21.05 108.12-18.73 108.89-16.4 108.89-13.6L108.89-13.6 108.89-12.25 89.94-12.25 89.94-11Q89.94-9 90.52-7.33 91.09-5.65 92.17-4.45 93.24-3.25 94.79-2.58 96.34-1.9 98.29-1.9L98.29-1.9Q103.89-1.9 106.04-7.05L106.04-7.05 108.14-5.65Q106.94-2.8 104.37-1.1 101.79 0.6 98.14 0.6ZM98.09-23.8L98.09-23.8Q96.24-23.8 94.74-23.13 93.24-22.45 92.17-21.25 91.09-20.05 90.52-18.38 89.94-16.7 89.94-14.7L89.94-14.7 89.94-14.45 105.79-14.45 105.79-14.85Q105.79-16.85 105.24-18.53 104.69-20.2 103.67-21.35 102.64-22.5 101.22-23.15 99.79-23.8 98.09-23.8ZM148.64 0L128.24 0 128.24-34.9 148.64-34.9 148.64-32.25 131.24-32.25 131.24-19.05 147.79-19.05 147.79-16.4 131.24-16.4 131.24-2.65 148.64-2.65 148.64 0ZM162.29 0L153.04-25.6 156.04-25.6 163.89-3.05 164.09-3.05 171.89-25.6 174.79-25.6 165.54 0 162.29 0ZM189.23 0.6L189.23 0.6Q186.68 0.6 184.61-0.3 182.53-1.2 181.06-2.93 179.58-4.65 178.81-7.15 178.03-9.65 178.03-12.8L178.03-12.8Q178.03-15.95 178.81-18.43 179.58-20.9 181.06-22.63 182.53-24.35 184.58-25.28 186.63-26.2 189.18-26.2L189.18-26.2Q191.63-26.2 193.63-25.28 195.63-24.35 197.03-22.7 198.43-21.05 199.21-18.73 199.98-16.4 199.98-13.6L199.98-13.6 199.98-12.25 181.03-12.25 181.03-11Q181.03-9 181.61-7.33 182.18-5.65 183.26-4.45 184.33-3.25 185.88-2.58 187.43-1.9 189.38-1.9L189.38-1.9Q194.98-1.9 197.13-7.05L197.13-7.05 199.23-5.65Q198.03-2.8 195.46-1.1 192.88 0.6 189.23 0.6ZM189.18-23.8L189.18-23.8Q187.33-23.8 185.83-23.13 184.33-22.45 183.26-21.25 182.18-20.05 181.61-18.38 181.03-16.7 181.03-14.7L181.03-14.7 181.03-14.45 196.88-14.45 196.88-14.85Q196.88-16.85 196.33-18.53 195.78-20.2 194.76-21.35 193.73-22.5 192.31-23.15 190.88-23.8 189.18-23.8ZM210.08 0L207.23 0 207.23-25.6 210.08-25.6 210.08-21.55 210.23-21.55Q211.08-23.55 212.88-24.88 214.68-26.2 217.78-26.2L217.78-26.2Q221.88-26.2 224.16-23.68 226.43-21.15 226.43-16.45L226.43-16.45 226.43 0 223.58 0 223.58-15.95Q223.58-19.85 221.91-21.75 220.23-23.65 217.03-23.65L217.03-23.65Q215.68-23.65 214.43-23.3 213.18-22.95 212.21-22.25 211.23-21.55 210.66-20.48 210.08-19.4 210.08-18L210.08-18 210.08 0ZM244.88 0L239.78 0Q238.23 0 237.43-0.85 236.63-1.7 236.63-3.15L236.63-3.15 236.63-23.1 232.18-23.1 232.18-25.6 235.08-25.6Q236.13-25.6 236.5-26.03 236.88-26.45 236.88-27.55L236.88-27.55 236.88-32.75 239.48-32.75 239.48-25.6 245.28-25.6 245.28-23.1 239.48-23.1 239.48-2.5 244.88-2.5 244.88 0ZM259.38 0.6L259.38 0.6Q256.03 0.6 253.65-0.65 251.28-1.9 249.53-4.3L249.53-4.3 251.63-5.95Q253.23-3.85 255.13-2.85 257.03-1.85 259.58-1.85L259.58-1.85Q262.53-1.85 264.13-3.1 265.73-4.35 265.73-6.7L265.73-6.7Q265.73-8.75 264.5-9.93 263.28-11.1 260.48-11.5L260.48-11.5 258.38-11.85Q256.63-12.1 255.18-12.6 253.73-13.1 252.7-13.95 251.68-14.8 251.1-16.03 250.53-17.25 250.53-19L250.53-19Q250.53-20.8 251.2-22.15 251.88-23.5 253.03-24.4 254.18-25.3 255.78-25.75 257.38-26.2 259.23-26.2L259.23-26.2Q262.43-26.2 264.48-25.1 266.53-24 267.98-22.25L267.98-22.25 266.08-20.5Q265.08-21.7 263.4-22.73 261.73-23.75 259.08-23.75L259.08-23.75Q256.33-23.75 254.8-22.55 253.28-21.35 253.28-19.15L253.28-19.15Q253.28-16.9 254.65-15.9 256.03-14.9 258.78-14.45L258.78-14.45 260.83-14.15Q264.73-13.55 266.6-11.83 268.48-10.1 268.48-7L268.48-7Q268.48-3.4 266.05-1.4 263.63 0.6 259.38 0.6Z" opacity="1" transform="matrix(1,0,0,1,0,0)" fill="#ffffff" class="slogan-text-1" data-fill-palette-color="secondary" id="text-1"></path></svg></g></svg></g></svg></g></svg></g><g><svg viewBox="0 0 136.32868919273278 125.84500966547449" height="125.84500966547449" width="136.32868919273278"><g><svg version="1.1" xmlns="http://www.w3.org/2000/svg" xmlns:xlink="http://www.w3.org/1999/xlink" x="0" y="0" viewBox="0 0 100 92.30999755859375" enable-background="new 0 0 100 92.31" xml:space="preserve" width="136.32868919273278" height="125.84500966547449" class="icon-icon-0" data-fill-palette-color="accent" id="icon-0"><path fill="#ffffff" d="M54.842 0.02c-0.1-0.01-0.2-0.02-0.3-0.02-2.66 0-4.5 2.155-4.5 4.814 0 2.62 1.02 4.75 5.02 4.805v0.015c18.999 0.26 35.618 16.489 35.618 36.408 0 20.079-16.489 36.648-36.568 36.648-19.164 0-35.073-14.46-36.474-33.458h8.455L13.044 27.539 0 49.233h8C9.414 73.231 29.483 92.31 53.952 92.31 79.341 92.31 100 71.551 100 46.158 100 21.069 79.82 0.495 54.842 0.02z" data-fill-palette-color="accent"></path><path fill="#ffffff" d="M59.062 22.444c0-2.265-1.819-4.21-4.079-4.21h-0.881c-2.26 0-4.039 1.945-4.039 4.21v24.204L38.208 58.482c-1.75 1.75-1.66 4.59-0.005 6.33 1.66 1.76 4.569 1.76 6.319 0l13.1-13.1c0.1-0.11 0.18-0.22 0.28-0.32 0.72-0.745 1.159-1.755 1.159-2.87V22.444z" data-fill-palette-color="accent"></path></svg></g></svg></g></svg></g><defs></defs></svg><rect width="395.52" height="91.59047097288524" fill="none" stroke="none" visibility="hidden"></rect></g></svg></g></svg>